<?xml version="1.0" encoding="UTF-8" standalone="no"?><svg xmlns="http://www.w3.org/2000/svg" xmlns:xlink="http://www.w3.org/1999/xlink" fill="#000000" height="488.7" preserveAspectRatio="xMidYMid meet" version="1" viewBox="0.0 0.0 434.6 488.7" width="434.6" zoomAndPan="magnify"><defs><clipPath id="a"><path d="M 0 28 L 434.609375 28 L 434.609375 463 L 0 463 Z M 0 28"/></clipPath><clipPath id="b"><path d="M 74 279 L 360 279 L 360 488.671875 L 74 488.671875 Z M 74 279"/></clipPath><clipPath id="c"><path d="M 217 279 L 360 279 L 360 488.671875 L 217 488.671875 Z M 217 279"/></clipPath></defs><g><g clip-path="url(#a)" id="change1_1"><path d="M 434.609375 245.480469 C 434.609375 365.496094 337.316406 462.785156 217.304688 462.785156 C 97.289062 462.785156 0 365.496094 0 245.480469 C 0 125.46875 97.289062 28.175781 217.304688 28.175781 C 337.316406 28.175781 434.609375 125.46875 434.609375 245.480469" fill="#ffc444"/></g><g clip-path="url(#b)" id="change2_1"><path d="M 359.792969 279.265625 L 217.339844 488.671875 L 217.308594 488.628906 L 74.816406 279.265625 L 217.308594 362.582031 L 217.339844 362.601562 L 359.792969 279.265625" fill="#7f90bf"/></g><g id="change2_2"><path d="M 359.792969 262.3125 L 217.339844 345.609375 L 217.308594 345.589844 L 74.941406 262.3125 L 217.308594 0.0664062 L 217.339844 0.00390625 L 359.792969 262.3125" fill="#7f90bf"/></g><g id="change3_1"><path d="M 359.789062 262.3125 L 217.34375 194.691406 L 74.941406 262.226562 L 217.339844 345.605469 L 359.789062 262.3125" fill="#5d6ba3"/></g><g clip-path="url(#c)" id="change4_1"><path d="M 217.339844 488.671875 L 217.308594 488.628906 L 217.308594 362.582031 L 217.339844 362.601562 L 359.792969 279.265625 L 217.339844 488.671875" fill="#7585b0"/></g><g id="change4_2"><path d="M 217.339844 345.609375 L 217.308594 345.589844 L 217.339844 345.605469 L 359.789062 262.3125 L 217.34375 194.691406 L 217.308594 194.707031 L 217.308594 0.0664062 L 217.339844 0.00390625 L 359.792969 262.3125 L 217.339844 345.609375" fill="#7585b0"/></g><g id="change5_1"><path d="M 217.339844 345.605469 L 217.308594 345.589844 L 217.308594 194.707031 L 217.34375 194.691406 L 359.789062 262.3125 L 217.339844 345.605469" fill="#2c3679"/></g></g></svg>