<?xml version="1.0" encoding="UTF-8"?><svg xmlns="http://www.w3.org/2000/svg" xmlns:xlink="http://www.w3.org/1999/xlink" clip-rule="evenodd" fill-rule="evenodd" height="544.0" preserveAspectRatio="xMidYMid meet" stroke-linejoin="round" stroke-miterlimit="2" version="1.0" viewBox="195.4 742.5 1600.5 544.0" width="1600.5" zoomAndPan="magnify"><path d="M1.915 1.304H2085.245V2084.634H1.915z" fill="none"/><g><g id="change1_1"><path d="M231.586,1217.92c4.726,-12.414 9.56,-19.498 13.038,-32.305c2.098,-7.724 2.55,-15.082 3.492,-23.029c0.908,-7.667 2.078,-15.018 2.122,-22.739c0.086,-15.026 -2.116,-29.972 -3.153,-44.976c-1.043,-15.1 -1.971,-30.151 -3.237,-45.252c-6.025,-71.908 -11.611,-142.843 -15.933,-214.531c-11.202,71.515 -24.996,142.144 -30.543,214.664c-1.391,18.186 -1.804,36.368 -1.657,54.582c0.113,14.099 -0.343,28.327 1.917,42.232c1.563,9.614 4.683,18.377 7.612,27.665c1.487,4.712 2.392,9.268 4.657,13.66c6.46,12.528 13.189,18.766 21.685,30.029Z" fill="#c78c26"/></g><g id="change1_2"><path d="M262.76,1254.29c5.162,-13.054 10.768,-23.318 14.549,-39.412c2.196,-9.345 2.499,-18.886 3.295,-29.24c0.727,-9.449 1.559,-18.973 1.199,-28.991c-0.658,-18.352 -3.966,-37.35 -6.382,-56.856c-2.3,-18.561 -4.672,-37.477 -7.436,-56.472c-14.592,-100.313 -28.819,-202.054 -9.828,-263.047c-23.473,45.349 -32.797,119.155 -35.536,199.091c-0.984,28.725 -1.401,57.923 -0.38,86.888c1.114,31.631 2.219,62.811 6.123,91.676c1.05,7.773 2.751,15.178 4.53,22.489c3.242,13.322 5.897,25.59 10.522,37.109c6.091,15.171 13.163,24.336 19.344,36.765Z" fill="#c78c26"/></g><g id="change1_3"><path d="M297.2,1222.65c4.104,-11.03 8.05,-14.729 11.235,-25.831c1.675,-5.841 2.17,-10.99 2.951,-16.958c0.733,-5.604 1.998,-10.742 2.06,-16.359c0.117,-10.772 -1.676,-21.414 -2.087,-32.134c-0.42,-10.977 -0.584,-21.873 -0.781,-32.886c-0.969,-53.959 2.449,-107.19 6.173,-161.328c-19.285,52.261 -41.813,102.84 -52.467,157.207c-2.761,14.09 -4.111,28.32 -4.61,42.63c-0.39,11.166 -1.115,22.564 1.245,33.538c1.657,7.71 4.712,14.339 8.056,21.553c1.691,3.648 2.652,7.153 5.132,10.35c7.699,9.924 12.994,12.339 23.093,20.218Z" fill="#c78c26"/></g><g id="change1_4"><path d="M340.149,1235.89c-0.245,-14.435 3.534,-23.838 4.588,-38.237c0.817,-11.161 1.129,-21.745 1.679,-33.187c0.244,-5.092 0.448,-10.169 0.411,-15.324c-0.149,-20.924 0.112,-42.272 1.4,-63.436c1.782,-29.266 3.658,-57.809 5.015,-83.805c0.999,-30.35 2.151,-57.83 4.266,-86.155c1.401,-18.762 3.109,-37.391 5.56,-57.324c0.637,-5.18 0.391,-14.8 3.56,-18.304c1.446,-1.6 3.548,-1.657 6.827,0.636c-3.277,-3.511 -5.901,-3.459 -7.998,-1.942c-4.106,2.969 -6.255,13.003 -8.077,18.297c-8.297,24.119 -15.126,46.526 -21.471,69.498c-6.336,22.942 -11.898,45.73 -17.846,70.54c-4.973,22.102 -11.834,45.707 -16.69,70.608c-4.812,24.67 -8.458,50.217 -8.058,75.267c0.135,8.456 0.585,16.896 2.331,25.043c2.79,13.02 6.549,25.107 12.966,36.428c1.548,2.732 2.856,5.002 4.866,7.4c8.67,10.343 15.61,16.215 26.671,23.997Z" fill="#c78c26"/></g><g id="change1_5"><path d="M399.297,1222.65c-5.415,-14.116 -3.863,-25.988 -5.254,-42.237c-1.036,-12.121 -1.535,-24.306 -2.049,-37.809c-0.285,-7.491 -0.818,-15.144 -1.204,-22.996c-0.883,-17.925 -1.343,-36.677 -0.684,-55.635c0.572,-16.424 1.537,-32.879 2.73,-49.033c3.395,-45.985 8.521,-88.556 11.492,-117.081c2.797,-28.445 5.166,-65.768 10.134,-92.915c3.58,-19.557 8.305,-33.441 15.696,-34.12c-7.754,-0.712 -15.375,12.645 -22.788,32.14c-9.893,26.018 -19.035,62.613 -26.987,90.321c-9.141,32.915 -26.814,84.253 -36.346,139.145c-5.793,33.354 -9.14,67.897 -5.905,99.315c0.697,6.777 1.795,13.383 3.564,19.711c4.626,16.552 9.613,32.037 19.372,44.014c11.36,13.942 22.671,20.982 38.229,27.18Z" fill="#c78c26"/></g><g id="change1_6"><path d="M437.482,1235.61c3.127,-13.568 6.455,-23.041 10.406,-36.593c0.368,-1.263 0.772,-2.222 0.99,-3.521c1.715,-10.247 2.27,-20.16 3.272,-30.638c0.69,-7.209 1.698,-14.27 1.869,-21.571c0.675,-28.702 -0.299,-57.837 0.174,-87.089c0.93,-57.503 1.945,-114.599 1.474,-168.198c-0.101,-5.378 -1.872,-43.755 0.879,-71.178c1.511,-15.069 4.241,-26.591 9.524,-27.097c-5.541,-0.531 -10.725,10.742 -15.281,25.957c-8.031,26.821 -13.681,65.435 -14.617,70.818c-7.788,46.542 -19.7,95.003 -27.238,145.053c-5.004,33.227 -8.024,66.823 -8.423,99.949c-0.063,5.247 -0.155,10.498 0.299,15.698c0.308,3.536 0.872,6.972 1.547,10.444c2.603,13.379 5.924,25.849 9.925,38.66c0.45,1.441 0.703,2.866 1.346,4.229c6.716,14.241 14.447,22.744 23.854,35.077Z" fill="#c78c26"/></g><g id="change1_7"><path d="M505.138,1221.18c-1.813,-13.912 0.164,-23.512 -0.593,-37.125c-0.41,-7.372 -1.359,-14.119 -1.949,-21.463c-0.429,-5.343 -0.307,-10.473 -0.702,-15.841c-0.382,-5.213 -0.635,-10.396 -1.19,-15.63c-1.672,-15.766 -3.459,-31.711 -3.767,-47.932c-0.262,-13.796 0.036,-27.65 0.382,-41.539c0.865,-34.617 2.565,-68.747 3.806,-100.769c0.325,-10.521 0.12,-63.206 2.875,-102.769c1.471,-21.132 3.686,-38.147 7.433,-42.72c-4.669,3.825 -10.353,20.397 -16.038,41.263c-10.454,38.371 -20.434,90.257 -22.797,100.545c-7.041,31.798 -16.405,65.348 -22.029,100.087c-2.835,17.511 -4.428,35.194 -4.958,52.756c-0.556,18.448 -0.825,37.002 3.175,54.59c2.176,9.571 5.585,18.487 9.821,27.253c4.328,8.959 8.021,17.721 14.665,25.152c9.785,10.944 18.861,16.456 31.866,24.142Z" fill="#c78c26"/></g><g id="change1_8"><path d="M522.562,1229.41c3.658,-15.069 8.728,-25.415 11.551,-40.966c1.555,-8.566 1.539,-16.885 2.177,-25.655c0.519,-7.144 1.382,-14.071 1.457,-21.281c0.032,-3.005 -0.262,-6.007 -0.457,-9.012c-1.515,-23.305 -2.245,-46.802 -2.655,-70.347c-0.902,-51.931 0.25,-103.434 8.349,-152.498c4.147,-27.141 8.844,-56.256 12.962,-78.031c3.637,-19.231 6.677,-32.277 8.411,-32.448c-1.758,-0.174 -7.409,12.17 -14.83,30.566c-8.336,20.667 -18.658,48.469 -28.062,74.428c-15.247,43.09 -27.502,88.675 -33.784,135.964c-2.656,19.993 -3.905,40.168 -4.174,60.304c-0.218,16.225 -0.686,32.556 1.798,48.438c1.716,10.977 5.057,21.122 8.347,31.616c1.674,5.337 2.762,10.55 5.273,15.508c6.913,13.646 14.539,21.457 23.637,33.414Z" fill="#c78c26"/></g><g id="change1_9"><path d="M556.799,1247.1c3.484,-16.23 8.574,-27.604 11.388,-43.398c1.636,-9.179 1.762,-18.01 2.613,-27.138c0.709,-7.608 1.806,-14.916 2.227,-22.466c0.177,-3.188 0.104,-6.377 0.075,-9.559c-0.229,-25.116 0.31,-49.911 2.15,-74.807c0.797,-10.787 1.636,-21.543 2.573,-32.39c3.717,-43.034 9.193,-86.224 16.641,-131.381l13.573,-81.059c1.763,-9.073 0.168,-22.969 2.593,-32.186c1.274,-4.84 3.704,-8.225 8.538,-8.665c-5.324,-0.485 -8.542,2.823 -10.884,7.814c-3.988,8.497 -4.908,22.244 -8.227,30.72l-28.009,77.71c-16.691,48.715 -32.364,95.106 -42.051,142.584c-4.345,21.293 -7.063,42.714 -8.783,64.28c-1.152,14.448 -2.283,29.002 -1.43,43.599c0.343,5.854 1.133,11.617 2.192,17.423c1.597,8.753 3.644,17.085 6.103,25.757c1.626,5.733 2.664,11.374 5.191,16.844c6.527,14.125 14.224,23.216 23.527,36.318Z" fill="#c78c26"/></g><g id="change1_10"><path d="M604.716,1200.51c4.183,-9.923 9.385,-17.753 15.105,-32.445c1.025,-2.632 1.746,-5.046 2.44,-7.946c3.02,-12.611 6.308,-26.077 8.1,-41.526c0.669,-5.763 0.459,-11.747 0.578,-17.827c0.347,-17.671 0.61,-36.383 0.954,-55.583c0.219,-12.268 0.343,-24.644 0.459,-37.126c0.459,-49.453 1.638,-98.686 7.709,-139.06c5.352,-35.59 13.461,-63.437 26.362,-77.386c-28.231,20.176 -51.814,87.276 -68.828,163.798c-5.52,24.822 -10.512,50.267 -13.836,75.632c-3.721,28.389 -6.954,56.236 -6.51,81.519c0.125,7.136 0.966,13.906 1.982,20.513c1.957,12.735 3.494,23.978 7.258,34.13c5.834,15.736 12.404,23.561 18.227,33.307Z" fill="#c78c26"/></g><g id="change1_11"><path d="M660.87,1247.1c1.549,-14.465 5.478,-24.325 7.341,-38.604c1.156,-8.864 1.349,-17.24 2.026,-26.174c0.653,-8.605 2.09,-16.911 2.464,-25.602c1.093,-25.437 1.374,-51.274 4.613,-77.435c2.168,-17.503 4.483,-35.056 7.469,-52.741c13.072,-77.408 34.7,-154.411 47.794,-223.592c-28.705,74.294 -72.865,155.547 -97.08,240.335c-6.207,21.735 -10.555,43.712 -13.258,65.587c-2.176,17.615 -4.165,35.295 -2.396,52.593c1.234,12.068 4.338,23.375 7.945,34.852c1.822,5.796 3.028,11.525 5.927,16.859c7.598,13.981 16.071,22.276 27.155,33.922Z" fill="#c78c26"/></g><g id="change1_12"><path d="M720.018,1247.81c-3.977,-13.852 -2.222,-25.037 -2.869,-40.318c-0.49,-11.574 -0.716,-23.051 -0.334,-35.867c0.211,-7.058 0.9,-14.186 1.027,-21.648c0.474,-27.813 2.043,-58.269 6.233,-89.945c3.779,-28.565 8.06,-57.876 13.386,-86.91c15.052,-82.063 34.092,-159.916 36.699,-206.081c-13.272,57.931 -65.16,162.039 -92.905,264.452c-6.488,23.95 -11.104,47.843 -13.91,70.821c-2.434,19.938 -4.324,39.36 -2.185,57.404c1.654,13.954 5.42,26.6 10.098,38.579c2.562,6.559 4.476,13.001 8.339,18.507c10.423,14.857 21.365,23.076 36.421,31.006Z" fill="#c78c26"/></g><g id="change1_13"><path d="M788.355,1262.52c2.057,-13.117 7.394,-23.51 10.638,-40.472c2.355,-12.317 3.254,-25.338 4.674,-39.798c0.544,-5.546 1.008,-11.179 1.116,-16.993c0.517,-27.698 0.149,-57.911 1.07,-88.91c1.352,-45.459 3.036,-92.051 8.458,-134.716c7.224,-56.843 18.531,-105.505 35.454,-133.008c-29.197,32.321 -56.576,103.215 -75.895,182.461c-6.727,27.593 -12.63,55.852 -16.421,84.013c-4.273,31.749 -7.447,63.03 -6.025,91.594c0.4,8.018 1.54,15.666 2.99,23.113c2.736,14.05 5.087,26.815 10.265,38.127c7.18,15.684 15.069,24.343 23.676,34.589Z" fill="#c78c26"/></g><g id="change1_14"><path d="M877.723,1236.6c3.229,-11.705 7.141,-16.702 9.606,-28.332c1.357,-6.401 1.583,-12.109 2.086,-18.565c0.478,-6.121 1.539,-11.826 1.409,-17.926c-0.251,-11.797 -2.295,-23.422 -2.866,-35.178c-0.582,-12.01 -0.813,-23.967 -1.014,-36.055c-0.98,-58.769 3.854,-117.408 8.183,-176.623c-19.902,57.521 -43.935,113.551 -54.508,172.873c-2.763,15.5 -4.004,31.117 -4.248,46.771c-0.191,12.259 -0.624,24.747 2.138,36.736c1.923,8.348 5.289,15.653 8.989,23.461c1.862,3.929 3.012,7.768 5.698,11.223c7.961,10.238 14.069,13.468 24.527,21.615Z" fill="#c78c26"/></g><g id="change1_15"><path d="M933.604,1244.83c4.216,-11.687 8.557,-17.217 11.73,-29.18c1.802,-6.791 2.181,-13.063 2.966,-20.036c0.748,-6.638 1.892,-12.905 1.885,-19.584c-0.012,-12.884 -2.097,-25.67 -2.867,-38.552c-0.777,-13.012 -1.328,-25.974 -2.014,-39.029c-3.307,-62.991 -3.062,-125.372 0.857,-187.759c-19.361,60.866 -38.972,122.017 -47.297,185.928c-2.112,16.212 -2.957,32.481 -3.046,48.775c-0.069,12.666 -0.559,25.498 1.857,37.915c1.684,8.659 4.87,16.339 8.083,24.56c1.632,4.174 2.622,8.198 5.04,11.976c7.166,11.199 13.441,15.474 22.806,24.986Z" fill="#c78c26"/></g><g id="change1_16"><path d="M983.292,1238.63c5.179,-9.998 8.432,-11.137 12.411,-21.578c1.849,-4.848 2.444,-8.887 3.338,-13.978c0.813,-4.633 2.077,-8.725 2.094,-13.418c0.032,-8.713 -2.046,-17.272 -2.916,-25.932c-0.887,-8.838 -1.688,-17.582 -2.628,-26.431c-4.655,-43.814 -7.295,-86.27 -5.958,-130.211c-16.988,42.321 -33.438,83.85 -40.503,129.007c-1.799,11.496 -2.349,23.047 -2.312,34.661c0.029,9.014 -0.414,18.266 1.958,26.975c1.722,6.323 4.657,11.31 7.846,17.058c1.643,2.962 2.503,5.694 4.811,8.183c8.19,8.832 11.674,9.053 21.859,15.664Z" fill="#c78c26"/></g><g id="change1_17"><path d="M1051.9,1225.39c2.462,-13.516 7.396,-21.839 10.579,-35.767c0.277,-1.209 0.322,-2.371 0.444,-3.611c1.183,-11.98 4.367,-23.272 5.91,-35.721c1.023,-8.255 1.249,-16.678 1.816,-25.137c1.345,-20.047 3.036,-40.355 4.661,-60.396c2.581,-31.83 4.288,-62.564 4.367,-90.21c-0,0 0.538,-87.54 0.538,-87.54c0.207,-13.729 -1.612,-43.029 0.749,-57.093c1.091,-6.5 3.084,-9.309 6.955,-4.281c-3.506,-7.311 -6.752,-4.355 -9.838,3.481c-5.264,13.37 -9.63,42.622 -12.7,56.113l-18.364,86.351c-4.807,26.65 -13.282,55.63 -19.682,86.249c-4.357,20.847 -7.976,42.215 -9.672,63.431c-0.758,9.469 -1.504,18.951 -0.644,28.233c1.328,14.318 4.822,27.372 9.081,40.499c0.442,1.364 0.675,2.701 1.322,3.972c6.924,13.596 14.267,20.89 24.478,31.427Z" fill="#c78c26"/></g><g id="change1_18"><path d="M1117.52,1268.01c0.98,-16.191 6.142,-28.312 9.432,-45.036c2.401,-12.204 4.129,-24.305 6.459,-37.127c1.489,-8.19 3.113,-16.39 4.354,-24.801c4.752,-32.207 10.073,-65.334 15.366,-96.536c4.09,-24.109 7.029,-47.064 8.669,-67.802l11.584,-183.574c0.674,-7.647 -2.185,-30.769 0.523,-40.313c1.055,-3.721 3.054,-5.017 6.633,-1.997c-3.637,-4.311 -6.219,-2.808 -8.226,1.395c-4.253,8.913 -5.36,32.068 -7.299,39.46c-4.261,16.244 -8.709,34.518 -13.173,53.783c-10.086,43.531 -20.045,90.719 -28.166,125.546c-4.312,19.471 -11.119,40.59 -17.271,63.211c-8.719,32.06 -18.038,66.32 -21.698,100.301c-0.765,7.105 -1.193,14.192 -0.969,21.228c0.558,17.541 1.512,34.502 7.261,50.123c6.37,17.309 15.091,28.819 26.521,42.139Z" fill="#c78c26"/></g><g id="change1_19"><path d="M1257.23,762.454c-2.148,-3.796 -3.999,-1.316 -1.769,11.88l-0.017,0.268c-0.039,0.894 -0.172,4.013 -0.456,5.251c0,0 -11.899,48.565 -11.899,48.565c-3.918,17.408 -6.581,28.014 -9.032,37.058c-4.193,15.473 -7.748,25.778 -16.023,55.535c-9.357,34.838 -21.577,69.079 -31.095,104.264c-6.882,25.442 -12.464,51.151 -15.75,77.017c-1.453,11.434 -2.937,22.934 -2.478,34.413c0.674,16.878 3.297,33.159 8.374,49.381c1.053,3.361 2.047,6.359 3.611,9.53c6.602,13.385 13.397,22.624 22.715,34.789c2.366,-14.442 6.445,-24.609 9.318,-38.568c1.132,-5.496 1.818,-10.593 2.535,-16.123c1.619,-12.476 4.2,-24.285 5.765,-36.718c1.28,-10.168 1.727,-20.426 2.78,-30.655c2.505,-24.338 6.197,-48.647 10.024,-73.082c5.673,-36.232 11.044,-72.357 15.049,-108.427c3.141,-30.766 4.943,-41.534 6.431,-57.516c0.887,-9.536 1.674,-20.686 2.535,-38.903l1.865,-28.781l0.206,1.322l0.142,-6.687l1.009,-15.575c0.075,-1.525 -0.369,-5.25 -0.511,-6.317l-0.037,-0.24c0.045,-13.906 -1.809,-16.043 -3.292,-11.681Z" fill="#c78c26"/></g><g id="change1_20"><path d="M1318.46,834.537l0.058,0.549c0.569,-5.918 0.808,-9.374 0.77,-10.822c-0.025,-0.933 -0.41,-1.367 -0.553,-1.496c-0.437,-0.396 -1.144,-0.529 -1.789,0.458c-0.388,0.592 -1.173,3.69 -2.315,8.83c-3.38,15.201 -10.058,48.41 -19.469,84.57l-25.412,90.655c-6.74,24.695 -14.398,48.404 -20.409,72.444c-6.327,25.306 -12.071,50.531 -14.049,76.17c-0.652,8.445 -0.802,16.898 -0.12,25.369c1.042,12.945 2.048,25.574 6.539,37.987c5.497,15.198 12.848,25.049 22.079,39.061c4.274,-14.648 9.985,-23.954 13.847,-38.161c3.256,-11.979 4.866,-23.511 7.128,-35.494c1.242,-6.578 2.477,-13.059 3.324,-19.676c1.991,-15.541 3.126,-31.147 5.237,-46.754c2.295,-16.97 4.985,-33.942 7.364,-51.203c2.39,-17.339 4.204,-34.745 6.112,-52.571l8.61,-94.577c2.297,-36.028 2.633,-68.889 3.048,-85.339Z" fill="#c78c26"/></g><g id="change1_21"><path d="M1336.41,1234.14c4.462,-12.379 7.776,-20.067 12.415,-31.954c0.453,-1.161 0.913,-1.911 1.206,-3.118c2.226,-9.161 2.719,-17.894 3.821,-27.047c0.772,-6.411 1.843,-12.557 2.007,-18.932c0.655,-25.461 -0.962,-50.297 -0.597,-75.285c0.685,-46.843 2.45,-93.397 9.034,-144.059c0.265,-2.246 3.865,-38.41 8.646,-64.775c2.491,-13.737 5.186,-24.55 7.945,-26.326c-3.154,1.171 -8.258,11.392 -13.777,24.601c-10.425,24.949 -21.807,59.813 -22.555,61.97c-14.78,43.675 -27.507,84.348 -34.816,126.122c-5.087,29.07 -7.462,58.269 -7.46,88.084c-0,4.548 -0.019,9.127 0.475,13.68c0.333,3.067 0.909,6.03 1.584,9.057c2.537,11.383 5.551,22.029 9.301,33.389c0.415,1.256 0.668,2.461 1.264,3.647c6.295,12.519 12.927,19.277 21.507,30.946Z" fill="#c78c26"/></g><g id="change1_22"><path d="M1395.83,1229.65c8.862,-12.319 16.449,-19.928 23.204,-33.5c5.949,-11.953 8.929,-24.409 12.189,-37.356c1.348,-5.358 2.29,-10.781 2.983,-16.263c3.546,-28.059 4.532,-56.357 5.683,-84.644c1.715,-42.139 1.492,-83.829 5.59,-126.049c0.535,-6.076 2.673,-40.416 6.133,-65.707c1.838,-13.434 2.914,-24.133 5.475,-25.147c1.044,-0.414 0.935,0.746 1.079,2.029c0.487,4.329 -0.352,11.01 0.216,14.756c0.26,-4.638 3.297,-13.053 2.847,-17.244c-0.325,-3.032 -2.021,-4.344 -5.332,-3.772c-2.571,0.444 -6.753,7.399 -10.896,17.934c-9.407,23.924 -20.851,65.989 -22.859,72.663c-12.118,41.638 -22.269,83.064 -29.516,125.566c-4.75,27.861 -9.069,55.774 -11.567,83.897c-0.48,5.401 -0.714,10.792 -0.604,16.213c0.265,13.05 0.339,25.5 2.854,38.308c2.889,14.716 8.113,23.967 12.521,38.316Z" fill="#c78c26"/></g><g id="change1_23"><path d="M1458.72,1192.28c3.949,-13.381 9.868,-21.634 15.123,-35.236c0.467,-1.209 0.748,-2.374 1.071,-3.636c3.077,-12.038 7.874,-23.222 11.487,-35.728c2.398,-8.3 4.14,-16.877 6.194,-25.456c4.866,-20.327 10.188,-40.881 15.486,-61.054c8.557,-32.586 16.181,-63.956 21.204,-91.589l16.953,-101.001c4.134,-29.314 13.23,-45.483 12.925,-52.768c-0.183,-4.35 -3.078,-6.425 -11.948,-5.541c7.202,0.717 9.789,1.894 9.238,5.386c-1.149,7.282 -13.444,21.474 -23.381,49.711l-35.97,95.571c-9.308,25.911 -23.225,54.389 -35.292,85.132c-8.1,20.636 -15.581,42.033 -20.894,63.603c-2.374,9.639 -4.658,19.298 -5.335,28.996c-1.046,14.981 0.097,29.094 2.497,43.226c0.252,1.487 0.34,2.889 0.813,4.312c4.937,14.855 11.104,23.899 19.829,36.072Z" fill="#c78c26"/></g><g id="change1_24"><path d="M1567.97,1203.21c4.265,-16.048 10.429,-27.317 14.611,-43.402c3.522,-13.551 5.219,-26.925 8.068,-40.755c0.582,-2.825 1.215,-5.597 1.608,-8.462c0.903,-6.592 1.318,-13.26 2.03,-19.914c2.373,-22.188 5.915,-44.415 9.909,-66.788c5.752,-32.219 12.231,-64.415 20.137,-96.521c15.747,-63.952 34.285,-126.19 49.527,-184.896c-35.414,77.292 -81.314,159.631 -110.236,246.773c-7.319,22.051 -13.031,44.442 -17.39,66.9c-3.454,17.801 -6.957,35.657 -7.011,53.536c-0.037,12.371 1.804,24.216 3.847,36.322c1.033,6.122 1.496,12.09 3.56,17.929c5.44,15.385 12.686,25.454 21.34,39.278Z" fill="#c78c26"/></g><g id="change1_25"><path d="M1630.65,1263.52c3.656,-15.223 8.68,-26.139 12.379,-41.185c0.808,-3.29 1.18,-6.432 1.675,-9.779c1.567,-10.585 3.538,-20.644 5.181,-31.21c1.07,-6.884 2.274,-13.666 2.981,-20.608c2.643,-25.911 4.694,-51.966 8.484,-78.067c4.471,-30.792 9.551,-61.556 15.552,-92.438c14.444,-74.33 31.514,-147.727 40.423,-219.406c-26.2,87.923 -68.943,175.699 -95.791,267.5c-6.844,23.399 -12.16,47.074 -16.1,70.852c-3.109,18.758 -6.269,37.609 -5.936,56.482c0.229,12.943 2.347,25.38 4.69,38.099c1.178,6.391 1.796,12.661 4.018,18.779c5.744,15.811 13.408,26.578 22.444,40.981Z" fill="#c78c26"/></g><g id="change1_26"><path d="M1720.7,1282.48c2.209,-14.6 6.937,-24.038 9.554,-38.606c1.401,-7.798 1.644,-15.287 2.614,-23.22c0.568,-4.641 1.46,-9.052 1.95,-13.732c0.476,-4.547 0.956,-9.072 1.172,-13.668c1.008,-21.452 1.906,-43.222 4.565,-64.991c1.158,-9.477 2.389,-18.915 3.605,-28.382c5.184,-40.355 11.434,-79.761 17.023,-116.327l14.066,-87.053c0.956,-4.953 3.695,-14.769 6.19,-21.256c1.983,-5.156 3.527,-8.237 3.932,-4.249c0.389,-3.834 -1.314,-2.799 -3.842,0.66c-3.998,5.468 -10.169,17.348 -12.499,22.979l-31.297,83.057c-13.515,38.731 -30.558,80.168 -41.786,123.914c-7.535,29.359 -13.186,59.467 -13.336,89.143c-0.031,5.986 0.277,11.929 1.187,17.8c2.212,14.271 4.435,28.06 10.921,40.723c7.154,13.967 15.232,21.828 25.981,33.208Z" fill="#c78c26"/></g><g id="change1_27"><path d="M1794.9,872.004c0.296,-3.45 -0.315,-2.812 -0.904,0.001c-1.336,6.384 -5.147,28.963 -7.456,38.032l-21.667,79.723c-10.301,38.564 -23.243,76.3 -32.853,115.411c-6.493,26.427 -12.6,53.084 -14.685,80.105c-0.411,5.336 -0.384,10.626 -0.062,15.963c0.777,12.84 1.111,25.175 4.953,37.442c4.367,13.943 10.388,21.989 17.466,34.814c6.235,-12.85 12.644,-20.253 17.905,-33.492c4.458,-11.221 6.744,-22.407 9.678,-34.127c1.216,-4.855 2.35,-9.665 3.086,-14.619c3.819,-25.68 6.193,-51.578 9.245,-77.468c4.721,-40.044 8.085,-79.772 11.145,-119.618l4.795,-82.827c0.37,-9.471 -0.612,-32.641 -0.641,-39.247l-0.005,-0.093Z" fill="#c78c26"/></g><g id="change1_28"><path d="M1652.37,1233.38c4.726,-12.518 10.827,-18.241 16.144,-30.698c3.845,-9.009 6.536,-17.75 10.062,-27.271c0.702,-1.896 1.483,-3.708 2.011,-5.678c1.201,-4.477 1.943,-9.11 2.95,-13.728c3.356,-15.403 7.642,-31.049 11.913,-47.122c6.156,-23.163 12.091,-46.716 17.756,-70.751c11.143,-47.278 19.271,-94.321 13.577,-140.677c-7.53,62.988 -43.256,120.431 -70.572,179.218c-6.139,13.211 -11.38,26.548 -16.04,39.823c-5.03,14.333 -10.205,28.485 -11.833,42.841c-0.713,6.291 -0.536,12.326 0.036,18.498c0.913,9.846 1.033,18.966 4.793,27.831c5.189,12.233 10.538,17.801 19.203,27.714Z" fill="#c78c26"/></g><g id="change1_29"><path d="M1657.34,1260.77c6.83,-11.699 13.534,-18.436 19.814,-30.916c4.984,-9.905 8.121,-19.96 11.892,-30.685c2.151,-6.118 4.294,-12.159 5.834,-18.538c6.038,-25.009 10.035,-50.976 14.806,-76.81c4.58,-24.802 8.205,-49.493 11.631,-73.966c8.996,-64.259 13.859,-124.719 3.578,-175.869c-0.276,66.445 -30.993,142.37 -57.341,222.397c-5.227,15.876 -9.846,31.941 -14.165,48.045c-4.413,16.454 -9.481,32.766 -11.49,49.358c-1.056,8.724 -0.892,17.198 -0.609,25.845c0.296,9.052 0.086,17.485 2.115,26.132c3.275,13.957 8.262,22.318 13.935,35.007Z" fill="#c78c26"/></g><g id="change1_30"><path d="M1554.49,1213.94c4.255,-12.662 9.43,-18.653 13.165,-30.92c2.987,-9.812 4.574,-18.953 6.569,-28.768c0.82,-4.036 1.643,-7.993 2.093,-12.065c2.391,-21.619 4.694,-42.992 8.29,-64.437c5.745,-34.256 11.777,-68.142 16.356,-102.709c4.755,-35.901 6.786,-71.254 1.069,-107.828c-4.964,58.8 -29.59,110.255 -51.225,163.792c-3.82,9.452 -7.547,18.766 -10.8,28.393c-4.992,14.777 -9.015,29.778 -12.046,45.008c-2.669,13.409 -5.559,27.026 -4.933,40.765c0.433,9.508 2.543,18.343 5.106,27.657c1.277,4.641 1.861,9.143 4.138,13.449c6.329,11.968 12.551,17.394 22.218,27.663Z" fill="#c78c26"/></g><g id="change1_31"><path d="M1522.84,1227.14c1.85,-12.083 5.725,-18.898 9.208,-30.793c0.693,-2.366 1.35,-4.347 1.801,-6.794c1.826,-9.904 4.907,-19.06 7.069,-29.411c1.346,-6.446 2.239,-13.07 3.357,-19.775c2.599,-15.582 5.535,-31.617 9.272,-47.804c2.513,-10.887 5.059,-21.792 7.627,-32.78c10.61,-45.409 21.913,-89.924 25.246,-128.706c2.637,-30.681 0.277,-57.037 -12.74,-77.092c18.96,50.965 -26.757,122.984 -58.69,200.51c-6.143,14.912 -11.277,30.104 -15.627,45.223c-4.696,16.32 -9.29,32.541 -9.953,48.579c-0.292,7.067 0.335,13.819 1.473,20.603c1.827,10.884 2.92,21.146 7.966,30.492c6.728,12.46 13.443,18.624 23.991,27.748Z" fill="#c78c26"/></g><g id="change1_32"><path d="M1472.88,1189.26c5.437,-11.025 9.014,-16.575 14.86,-26.491c0.578,-0.981 1.113,-1.45 1.542,-2.497c3.058,-7.459 4.646,-14.462 6.84,-21.831c1.541,-5.176 3.522,-9.908 4.599,-15.061c4.402,-21.077 7.404,-41.408 12.452,-61.712c9.683,-38.951 20.505,-77.787 30.529,-123.092c2.297,-11.098 5.889,-32.852 3.77,-51.47c-1.542,-13.545 -5.586,-25.125 -15.374,-29.334c7.681,5.9 8.826,16.965 7.154,29.244c-2.319,17.043 -10.43,35.586 -14.979,44.943c-17.424,36.632 -36.426,67.17 -50.922,99.425c-10.774,23.975 -19.769,48.279 -23.89,74.505c-1.061,6.746 -1.805,13.624 -1.465,20.614c0.509,10.48 2.324,20.233 5.1,30.949c0.303,1.17 0.431,2.251 0.929,3.362c5.275,11.778 10.552,17.363 18.855,28.446Z" fill="#c78c26"/></g><g id="change1_33"><path d="M1411.55,1225.91c0.631,-13.906 4.738,-21.664 6.257,-34.893c1.15,-10.013 1.64,-19.213 2.841,-29.175c0.277,-2.302 0.732,-4.516 0.849,-6.838c0.172,-3.417 0.029,-6.849 0.073,-10.289c0.172,-13.7 1.242,-27.528 3.012,-41.464c1.566,-12.336 3.452,-24.651 5.418,-37.035c4.954,-31.217 10.207,-61.787 13.259,-90.853c1.087,-11.155 7.011,-48.274 6.288,-76.453c-0.385,-15.001 -2.461,-27.179 -8.179,-31.694c4.276,5.417 3.505,17.091 0.58,31.003c-5.71,27.154 -19.793,61.368 -23.355,71.81c-10.86,33.112 -27.307,67.136 -38.067,103.193c-7.602,25.476 -13.241,51.655 -12.41,77.311c0.173,5.326 0.725,10.581 1.939,15.74c2.942,12.501 5.637,24.661 13.26,35.087c8.343,11.409 15.945,16.372 28.235,24.55Z" fill="#c78c26"/></g><g id="change1_34"><path d="M1376.57,1213.94c4.588,-11.961 9.365,-17.911 13.108,-29.889c2.19,-7.011 3.014,-13.562 4.278,-20.718c1.218,-6.902 2.869,-13.384 3.414,-20.321c1.069,-13.617 0.187,-27.228 0.645,-40.794c0.469,-13.896 1.2,-27.695 1.683,-41.592c2.324,-66.825 6.164,-132.634 -1.798,-200.973c-7.935,68.108 -30.647,130.115 -44.335,195.334c-3.525,16.795 -5.961,33.73 -7.583,50.82c-1.266,13.333 -2.944,26.838 -1.546,40.245c0.967,9.269 3.539,17.763 6.218,26.781c1.348,4.536 2.058,8.913 4.283,13.126c6.339,12.007 12.617,17.437 21.633,27.981Z" fill="#c78c26"/></g><g id="change1_35"><path d="M1324.43,1189.54c3.865,-12.055 8.545,-16.363 11.907,-27.766c2.505,-8.5 3.975,-16.052 5.615,-24.411c0.665,-3.394 1.399,-6.685 1.721,-10.097c1.741,-18.469 3.54,-36.562 6.525,-54.771c4.946,-30.182 9.985,-59.916 12.018,-90.605c2.061,-31.105 0.386,-61.718 -11.571,-93.88c5.119,61.901 -23.768,109.959 -43.652,162.528c-4.6,12.16 -8.199,24.567 -11.14,37.171c-3.07,13.155 -6.151,26.571 -5.592,40.207c0.174,4.253 0.839,8.303 1.909,12.466c2.52,9.808 4.026,19.218 9.995,27.897c6.881,10.006 12.169,13.232 22.265,21.261Z" fill="#c78c26"/></g><g id="change1_36"><path d="M1198.17,1242.61c4.754,-12.387 9.651,-18.671 12.919,-31.478c2.619,-10.264 2.98,-20.082 3.827,-30.603c0.345,-4.29 0.593,-8.509 0.459,-12.804c-0.428,-13.711 -2.182,-27.301 -2.906,-40.963c-0.727,-13.703 -1.242,-27.318 -1.503,-41.056c-0.528,-27.683 -0.549,-55.008 3.087,-83.042c3.024,-24.886 10.648,-49.085 13.489,-74.194c1.241,-10.966 1.613,-21.755 0.245,-32.898c-1.333,10.86 -4.22,20.974 -7.963,31.057c-8.914,24.011 -22.223,46.004 -31.225,69.764c-10.826,29.291 -19.063,58.447 -23.561,88.694c-3.017,20.287 -3.967,40.737 -3.886,61.241c0.038,9.514 -0.15,19.111 1.3,28.534c0.666,4.322 1.836,8.394 3.118,12.58c3.052,9.969 5.168,19.569 10.447,28.602c6.779,11.601 13.279,16.408 22.153,26.566Z" fill="#c78c26"/></g><g id="change1_37"><path d="M1183.67,1222.65c4.515,-12.229 8.955,-17.901 12.228,-29.397c1.993,-7.002 2.59,-13.289 3.598,-20.038c1.011,-6.767 2.503,-12.908 2.891,-19.326c0.807,-13.376 -0.126,-25.937 0.62,-37.956c0.831,-13.391 2.205,-26.037 3.72,-38.469c7.565,-62.094 22.868,-115.62 13.497,-193.233c-8.14,66.664 -31.713,110.596 -50.563,159.826c-3.578,9.345 -6.94,18.679 -9.779,28.538c-4.129,14.337 -7.115,29.355 -8.956,45.393c-1.453,12.651 -3.227,26.064 -1.396,40.008c1.152,8.771 3.886,16.983 7.007,25.997c1.481,4.278 2.319,8.489 4.724,12.537c6.576,11.07 12.776,15.817 22.409,26.12Z" fill="#c78c26"/></g><g id="change1_38"><path d="M1112.82,1234.38c4.775,-10.628 8.1,-12.759 11.957,-22.966c0.668,-1.768 0.966,-3.159 1.327,-4.985c1.093,-5.543 2.59,-9.999 3.434,-15.331c0.526,-3.32 1.279,-6.412 1.371,-9.687c0.345,-12.378 -0.523,-24.139 0.344,-35.829c1.096,-14.801 2.367,-29.084 5.321,-43.879c6.851,-34.315 17.288,-68.265 28.842,-107.845c-23.213,32.772 -44.583,60.383 -61.351,90.272c-8.291,14.78 -15.062,29.467 -19.776,45.318c-5.099,17.148 -8.841,35.34 -6.695,54.166c0.527,4.619 1.626,9.002 3.359,13.464c2.911,7.497 4.875,14.429 10.46,20.865c7.455,8.59 11.364,9.608 21.407,16.437Z" fill="#c78c26"/></g><g id="change1_39"><path d="M1168.22,1204.49c7.769,-9.67 13.47,-13.426 20.117,-23.755c3.791,-5.892 5.944,-11.748 8.715,-18.14c2.658,-6.13 5.484,-11.813 7.317,-18.208c3.566,-12.433 4.884,-25.342 7.284,-37.979c2.442,-12.863 4.927,-25.62 6.996,-38.516c9.893,-61.667 17.926,-121.975 20.477,-185.548c-18.124,60.692 -44.365,115.442 -65.477,173.925c-4.559,12.629 -8.423,25.432 -12.056,38.391c-3.645,12.996 -8.025,25.959 -9.501,39.451c-0.764,6.991 -0.358,13.699 0.118,20.747c0.492,7.298 0.432,13.918 2.485,20.982c3.488,12.004 7.842,17.376 13.525,28.65Z" fill="#c78c26"/></g><g id="change1_40"><path d="M1242.35,1228.13c4.212,-10.722 8.259,-13.364 12.059,-23.804c1.89,-5.189 2.998,-9.602 4.251,-14.903c1.159,-4.905 3.072,-9.203 3.759,-14.176c1.316,-9.535 1.054,-19.207 2.26,-28.853c1.254,-10.03 2.836,-20.008 4.422,-30.174c7.962,-51.016 20.124,-101.84 19.176,-152.611c-12.488,42.539 -36.35,81.011 -55.854,122.084c-3.474,7.316 -6.717,14.48 -9.543,21.979c-4.395,11.662 -7.67,23.541 -10.056,35.542c-2.148,10.801 -4.511,21.797 -3.39,32.673c0.805,7.81 3.041,14.641 5.957,21.995c1.471,3.71 2.086,7.257 4.474,10.5c7.374,10.011 11.993,12.229 22.485,19.748Z" fill="#c78c26"/></g><g id="change1_41"><path d="M1256.3,1219.67c6.091,-9.472 9.653,-10.706 14.631,-20.848c2.36,-4.809 3.342,-9.012 4.753,-14.197c1.288,-4.737 2.931,-8.938 3.408,-13.842c0.888,-9.121 -0.401,-18.34 -0.532,-27.568c-0.133,-9.357 -0.205,-18.644 -0.515,-28.046c-1.533,-46.482 -2.383,-91.56 -1.113,-136.432c-16.457,42.876 -34.855,85.626 -45.159,132.077c-2.585,11.654 -4.071,23.409 -5.032,35.231c-0.751,9.242 -2.033,18.626 -0.545,27.718c1.086,6.634 3.549,12.078 6.089,18.271c1.318,3.211 1.911,6.114 3.934,8.927c7.095,9.864 10.879,10.835 20.081,18.709Z" fill="#c78c26"/></g><g id="change1_42"><path d="M1147.26,1227.9c4.776,-11.468 9.763,-16.612 14.16,-28.081c2.469,-6.443 3.82,-12.449 5.579,-19.115c1.668,-6.324 3.902,-12.17 5.062,-18.631c2.244,-12.505 2.83,-25.306 4.899,-38.02c2.101,-12.909 4.585,-25.776 7.02,-38.81c11.997,-64.224 28.579,-128.117 34.359,-189.671c-20.419,58.749 -55.727,115.62 -79.09,177.055c-6.01,15.801 -10.672,31.916 -14.307,48.146c-2.906,12.982 -6.038,26.058 -5.855,39.202c0.129,9.282 1.94,17.852 4.051,26.861c1.072,4.572 1.459,8.936 3.491,13.175c5.85,12.203 11.678,17.533 20.631,27.889Z" fill="#c78c26"/></g><g id="change1_43"><path d="M1017.19,1206.47c7.09,-11.604 13.358,-17.234 19.405,-29.247c0.527,-1.047 0.756,-2.111 1.125,-3.223c3.289,-9.904 7.431,-18.682 10.273,-28.661c1.81,-6.359 3.015,-12.844 4.142,-19.346c4.449,-25.651 8.304,-51.241 12.584,-76.966c6.586,-39.589 11.952,-78.812 17.276,-119.059c0.526,-4.23 0.482,-27.18 3.747,-48.199c1.893,-12.183 4.795,-23.397 9.74,-29.674c-6.525,5.141 -12.162,15.783 -17.039,27.637c-8.043,19.55 -13.344,41.734 -14.836,45.699c-14.035,38.171 -30.198,74.476 -43.01,112.584c-8.71,25.907 -16.473,52.086 -21.008,78.993c-1.181,7.009 -2.174,14.074 -2.194,21.194c-0.032,11.119 0.86,21.533 3.187,32.473c0.563,2.647 1.12,4.731 2.114,7.253c4.506,11.437 8.504,17.665 14.494,28.542Z" fill="#c78c26"/></g><g id="change1_44"><path d="M1082.87,1211.72c6.867,-9.104 10.776,-10.428 16.554,-20.123c2.833,-4.754 4.243,-9.042 6.156,-14.205c1.769,-4.775 3.852,-8.979 4.843,-13.958c1.87,-9.394 1.608,-19.052 2.525,-28.57c0.938,-9.732 1.953,-19.36 2.74,-29.122c3.849,-47.778 8.253,-94.022 11.924,-142.13c-19.108,45.062 -42.079,86.665 -57.454,132.796c-3.919,11.759 -6.766,23.743 -9.063,35.9c-1.788,9.469 -4.115,19.054 -3.6,28.696c0.371,6.934 2.246,12.898 4.154,19.605c0.979,3.442 1.272,6.534 3.02,9.67c5.92,10.618 9.844,12.432 18.201,21.441Z" fill="#c78c26"/></g><g id="change1_45"><path d="M927.138,1244.08c4.812,-11.324 9.5,-15.785 13.675,-26.787c2.331,-6.143 3.563,-11.707 5.147,-17.924c1.517,-5.951 3.631,-11.332 4.638,-17.293c1.978,-11.721 2.335,-23.505 4.216,-35.105c1.958,-12.071 4.321,-23.983 6.669,-36.039c11.413,-58.591 27.282,-116.157 28.15,-179.445c-14.734,52.932 -41.116,97.739 -63.218,144.92c-4.001,8.539 -7.811,16.947 -11.164,25.696c-5.148,13.433 -9.233,27.146 -12.37,41.141c-2.744,12.241 -5.74,24.724 -5.271,37.42c0.323,8.758 2.264,16.82 4.644,25.448c1.182,4.283 1.647,8.393 3.791,12.361c6.156,11.397 11.72,15.798 21.093,25.607Z" fill="#c78c26"/></g><g id="change1_46"><path d="M875.205,1233.62c3.318,-10.658 5.962,-15.554 10.824,-25.644c0.469,-0.974 0.975,-1.333 1.298,-2.365c2.075,-6.639 3.078,-12.817 4.591,-19.708c1.018,-4.639 2.668,-8.898 3.282,-13.666c2.381,-18.477 3.312,-37.518 6.047,-56.584c5.658,-39.439 12.231,-78.432 17.399,-113.323c2.371,-17.928 4.952,-45.671 8.538,-62.664c1.723,-8.161 3.529,-13.555 5.746,-13.856c-2.336,-0.318 -5.733,4.615 -9.775,12.418c-8.039,15.518 -17.981,41.736 -25.084,58.491c-12.059,29.203 -28.395,60.194 -40.027,93.961c-7.826,22.719 -13.163,46.303 -15.512,69.566c-0.318,3.157 -0.663,6.323 -0.537,9.472c0.13,3.271 0.517,6.394 1.165,9.581c2.037,10.03 4.112,19.033 8.197,28.216c0.482,1.082 0.765,2.031 1.432,3.007c7.313,10.702 12.507,14.829 22.416,23.098Z" fill="#c78c26"/></g><g id="change1_47"><path d="M761.129,1285.23c4.713,-10.716 8.324,-13.275 11.714,-23.876c1.741,-5.447 2.224,-10.074 2.994,-15.544c0.727,-5.159 1.966,-9.751 1.982,-14.804c0.03,-9.751 -1.859,-19.111 -2.268,-28.424c-0.427,-9.734 -0.588,-19.22 -0.531,-28.786c0.273,-45.842 7.346,-89.849 21.821,-142.133c-23.224,34.844 -41.968,65.767 -55.528,98.919c-6.54,15.99 -11.583,31.843 -14.607,48.691c-3.173,17.682 -5.285,36.191 -2.15,54.942c0.769,4.598 2.125,8.918 3.984,13.315c3.163,7.481 5.463,14.358 11.027,20.783c7.508,8.671 11.769,9.872 21.562,16.917Z" fill="#c78c26"/></g><g id="change1_48"><path d="M833.005,1257.32c7.036,-9.218 11.43,-11.17 17.421,-20.908c3.071,-4.993 4.702,-9.626 6.858,-15.031c2.018,-5.059 4.335,-9.563 5.597,-14.834c2.41,-10.07 2.719,-20.473 4.217,-30.673c1.535,-10.451 3.171,-20.788 4.561,-31.266c6.761,-50.983 13.921,-100.47 17.798,-152.64c-19.374,48.974 -44.814,92.834 -62.884,141.355c-4.623,12.414 -8.214,25.092 -11.228,37.987c-2.348,10.042 -5.231,20.18 -5.245,30.539c-0.009,7.366 1.559,13.917 3.12,21.165c0.796,3.698 0.94,7.05 2.546,10.494c5.207,11.172 9.458,14.017 17.239,23.812Z" fill="#c78c26"/></g><g id="change1_49"><path d="M803.057,1257.32c6.479,-9.399 10.405,-10.972 15.811,-20.896c2.664,-4.889 3.941,-9.268 5.681,-14.529c1.611,-4.87 3.568,-9.182 4.407,-14.228c1.586,-9.536 1.052,-19.272 1.709,-28.908c0.673,-9.855 1.436,-19.613 1.969,-29.5c2.611,-48.452 5.896,-95.449 7.68,-144.06c-17.27,46.145 -39.277,88.939 -53.452,135.998c-3.616,12.002 -6.147,24.198 -8.108,36.546c-1.53,9.637 -3.584,19.405 -2.776,29.141c0.581,6.999 2.639,12.991 4.768,19.711c1.091,3.447 1.484,6.573 3.343,9.686c6.25,10.469 10.304,12.279 18.968,21.039Z" fill="#c78c26"/></g><g id="change1_50"><path d="M746.155,1232.15c4.741,-11.781 8.901,-18.788 13.092,-30.739c0.904,-2.578 1.524,-4.76 2.053,-7.44c2.433,-12.317 4.515,-23.992 5.336,-36.502c0.552,-8.408 -0.125,-16.848 -0.397,-25.268c-0.639,-19.764 -1.376,-39.473 -2.248,-59.252c-1.262,-28.652 -3.39,-56.915 -4.333,-85.675c-1.107,-24.061 -6.169,-68.087 -4.363,-100.804c1.088,-19.705 4.478,-34.798 13.194,-38.158c-9.849,1.459 -16.963,16.337 -22.655,36.587c-8.957,31.873 -13.52,76.424 -17.656,100.408c-4.599,28.931 -9.477,57.406 -12.173,86.48c-1.894,20.426 -2.824,40.888 -2.741,61.378c0.036,8.812 -0.179,17.692 1.105,26.412c1.902,12.927 5.148,24.926 9.595,37.232c0.959,2.653 1.866,4.816 3.23,7.286c6.202,11.237 11.541,17.538 18.961,28.055Z" fill="#c78c26"/></g><g id="change1_51"><path d="M1566.47,1178.57c3.972,-10.978 8.447,-14.881 12.37,-25.912c2.026,-5.696 3.218,-10.809 4.657,-16.753c1.332,-5.502 3.371,-10.502 4.258,-16.182c1.683,-10.78 1.803,-21.912 3.43,-33.066c1.644,-11.265 3.666,-22.555 5.739,-34.032c10.539,-58.334 27.187,-116.79 37.241,-166.501c-23.437,46.15 -59.5,97.46 -81.907,153.656c-5.697,14.288 -9.877,28.914 -12.991,43.524c-2.545,11.944 -5.223,23.959 -4.509,35.791c0.521,8.62 2.62,16.313 5.22,24.389c1.339,4.162 1.89,8.127 4.177,11.821c6.913,11.164 12.336,14.799 22.315,23.265Z" fill="#c78c26"/></g><g id="change1_52"><path d="M1598.94,1209.69c4.28,-10.931 8.429,-14.24 12.13,-24.932c1.918,-5.543 2.905,-10.369 4.114,-16.003c1.132,-5.272 2.954,-9.971 3.58,-15.274c1.208,-10.216 0.801,-20.484 1.925,-30.699c1.164,-10.574 2.697,-21.056 4.338,-31.693c8.12,-52.633 22.223,-104.673 29.932,-157.715c-19.977,43.176 -46.168,83.18 -66.406,126.317c-3.646,7.771 -6.982,15.432 -9.868,23.429c-4.449,12.33 -7.668,24.924 -9.942,37.687c-2.007,11.266 -4.215,22.772 -2.951,34.18c0.889,8.02 3.255,15.112 6.19,22.747c1.469,3.822 2.143,7.489 4.519,10.881c7.193,10.267 12.236,12.979 22.439,21.075Z" fill="#c78c26"/></g><g id="change2_1"><path d="M418.145,1231.65c-1.812,-8.243 -1.398,-14.977 -2.455,-23.204c-0.907,-7.055 -2.035,-13.803 -2.886,-20.927c-0.494,-4.138 -0.992,-8.273 -1.521,-12.452c-1.235,-9.747 -2.351,-19.638 -2.702,-29.674c-0.305,-8.705 -0.263,-17.451 -0.133,-26.19c0.322,-21.718 1.438,-43.093 2.311,-62.78c0.451,-11.558 -0.498,-37 1.521,-58.34c0.901,-9.529 2.364,-18.126 4.854,-24.279c-3.485,5.778 -6.333,14.174 -8.754,23.598c-5.342,20.798 -8.353,46.128 -10.598,57.496c-3.771,19.645 -8.735,40.848 -11.535,62.717c-1.386,10.818 -2.123,21.742 -2.202,32.589c-0.082,11.274 0.255,22.539 2.486,33.325c0.715,3.459 1.684,6.819 2.887,10.112c2.875,7.868 5.75,15.575 10.84,22.145c5.213,6.73 10.825,10.85 17.887,15.864Z" fill="#f8bb52"/></g><g id="change2_2"><path d="M455.96,1230.86c-2.347,-7.713 -2.135,-14.221 -3.135,-22.254c-0.587,-4.71 -1.36,-9.241 -1.827,-14.097c-0.449,-4.665 -0.336,-9.331 -0.65,-14.157c-0.406,-6.246 -1.114,-12.595 -1.292,-19.074c-0.383,-13.929 0.469,-28.266 1.58,-42.368c1.888,-23.974 4.475,-47.054 5.789,-65.831c0.714,-11.036 1.304,-31.869 3.691,-51.622c1.536,-12.709 3.766,-24.811 7.301,-33.499c-4.901,8.159 -9.033,19.946 -12.542,32.454c-5.411,19.289 -9.156,39.94 -11.547,50.815c-3.87,18.036 -10.336,39.797 -14.722,62.915c-2.053,10.822 -3.525,21.896 -4.333,32.894c-0.851,11.565 -1.274,23.108 0.322,34.076c0.526,3.613 1.332,7.115 2.383,10.536c2.589,8.427 5.257,16.555 10.344,23.29c5.322,7.046 11.138,11.33 18.638,15.922Z" fill="#f8bb52"/></g><g id="change2_3"><path d="M464.298,1223.31c2.151,-5.357 4.047,-7.141 5.618,-12.441c0.849,-2.863 1.07,-5.376 1.45,-8.253c0.361,-2.745 0.957,-5.241 0.979,-7.943c0.042,-5.268 -0.85,-10.378 -1.045,-15.473c-0.203,-5.298 -0.266,-10.499 -0.3,-15.74c-0.163,-25.027 2.28,-49.335 5.772,-77.396c-8.605,19.673 -16.651,37.117 -22.623,55.356c-2.785,8.505 -5.097,16.872 -6.464,25.642c-1.454,9.331 -2.503,18.967 -1.08,28.69c0.355,2.42 1.007,4.715 1.885,7.046c1.493,3.967 2.618,7.665 5.306,11.146c3.483,4.51 5.897,5.596 10.502,9.366Z" fill="#f8bb52"/></g><g id="change2_4"><path d="M489.606,1231.33c2.589,-5.246 4.758,-7.273 6.773,-12.665c1.114,-2.982 1.516,-5.733 2.133,-8.825c0.587,-2.94 1.343,-5.663 1.553,-8.63c0.406,-5.73 -0.208,-11.439 -0.188,-17.125c0.019,-5.789 0.134,-11.518 0.203,-17.288c0.332,-27.685 2.401,-54.698 7.096,-83.07c-9.236,19.976 -17.455,39.245 -23.73,59.552c-2.781,8.998 -5.2,17.908 -6.775,27.167c-1.677,9.86 -3.109,19.914 -2.36,30.008c0.19,2.563 0.696,5.015 1.375,7.51c1.176,4.319 2.042,8.31 4.352,12.21c3.002,5.069 5.525,6.742 9.568,11.156Z" fill="#f8bb52"/></g><g id="change2_5"><path d="M539.17,1233.79c-0.142,-7.557 2.035,-13.863 3.164,-22.805c0.841,-6.656 1.189,-13.564 2.111,-21.105c0.18,-1.466 0.392,-2.924 0.487,-4.429c0.214,-3.393 0.207,-6.87 0.346,-10.409c0.444,-11.218 1.477,-23.048 2.686,-35.213c1.669,-16.786 3.602,-34.05 6.164,-51.051c5.682,-37.711 13.012,-73.337 18.533,-97.429c-12.739,31.115 -33.741,82.303 -45.478,132.596c-2.769,11.864 -4.769,23.683 -6.128,35.096c-1.147,9.637 -2.243,19.022 -1.692,27.878c0.417,6.703 1.781,12.862 3.276,18.813c0.819,3.263 1.35,6.402 2.691,9.283c3.853,8.285 8.364,13.305 13.84,18.775Z" fill="#f8bb52"/></g><g id="change2_6"><path d="M567.426,1257.99c0.948,-6.708 3.941,-13.713 6.365,-24.1c1.26,-5.399 1.978,-11.216 3.025,-17.611c0.917,-5.603 2.072,-11.411 2.741,-17.648c1.193,-11.121 1.49,-23.172 2.377,-35.68c0.824,-11.629 1.764,-23.66 2.533,-35.867c4.301,-68.31 9.481,-140.713 11.582,-168.478c-5.774,27.324 -22.85,98.2 -33.875,165.957c-2.333,14.338 -4.163,28.535 -5.627,42.114c-1.238,11.479 -2.622,22.508 -2.646,32.83c-0.018,7.944 0.878,15.278 1.629,22.195c0.428,3.942 0.61,7.645 1.47,11.132c2.802,11.358 6.818,18.771 10.426,25.156Z" fill="#f8bb52"/></g><g id="change2_7"><path d="M663.185,1238.58c3.011,-5.369 5.528,-7.872 7.899,-13.408c1.392,-3.253 1.991,-6.365 2.849,-9.744c0.829,-3.264 1.78,-6.318 2.213,-9.614c0.846,-6.445 0.637,-12.899 1.072,-19.26c0.443,-6.478 0.99,-12.863 1.523,-19.273c2.508,-30.172 7.354,-59.316 17.875,-90.577c-13.56,21.323 -24.257,41.906 -32.429,63.673c-3.682,9.807 -6.854,19.595 -9.142,29.813c-2.402,10.725 -4.537,21.703 -4.535,32.974c0.001,2.809 0.331,5.545 0.811,8.34c0.819,4.769 1.387,9.242 3.353,13.765c2.436,5.607 5.033,8.118 8.511,13.311Z" fill="#f8bb52"/></g><g id="change2_8"><path d="M745.763,1268.64c2.237,-5.055 4.143,-6.422 5.978,-11.649c0.92,-2.62 1.275,-4.929 1.774,-7.672c0.46,-2.534 1.166,-4.839 1.29,-7.424c0.234,-4.873 -0.485,-9.764 -0.575,-14.699c-0.091,-5.001 -0.092,-9.985 -0.14,-15.033c-0.239,-25.123 1.111,-49.944 3.333,-73.475c-9.37,22.427 -20.149,45.911 -25.648,71.156c-1.393,6.396 -2.148,12.855 -2.547,19.317c-0.315,5.104 -0.816,10.282 0.123,15.255c0.676,3.581 2.021,6.614 3.48,9.929c0.751,1.705 1.139,3.312 2.259,4.796c3.636,4.817 5.943,5.773 10.673,9.499Z" fill="#f8bb52"/></g><g id="change2_9"><path d="M765.218,1286.52c0.327,-5.622 2.648,-7.897 3.908,-13.96c0.762,-3.663 1.409,-7.098 2.184,-11.162c0.147,-0.776 0.367,-1.514 0.435,-2.315c0.152,-1.786 0.096,-3.62 0.167,-5.482c0.236,-6.09 0.91,-12.471 1.811,-19.045c1.284,-9.374 2.688,-18.902 4.999,-28.298c5.21,-21.188 12.562,-40.512 20.799,-52.368c-12.25,9.873 -26.37,27.976 -37.576,49.02c-4.323,8.119 -8.11,16.444 -10.837,25.023c-3.356,10.557 -5.797,21.25 -5.078,30.992c0.152,2.07 0.563,3.984 1.163,5.895c1.58,5.037 2.591,9.617 5.74,13.234c4.215,4.841 6.859,6.13 12.285,8.466Z" fill="#f8bb52"/></g><g id="change2_10"><path d="M766.439,1286.19c3.296,-7.551 7.228,-12.329 10.684,-19.283c3.024,-6.086 5.498,-11.96 8.301,-17.977c1.293,-2.775 2.527,-5.552 3.694,-8.378c4.785,-11.591 9.868,-23.076 15.156,-34.731c6.756,-14.891 13.124,-30.148 18.324,-46.473c5.594,-18.568 9.116,-38.288 15.19,-57.077c4.021,-12.438 9.058,-24.25 16.694,-34.923c-9.603,9.397 -16.79,20.412 -23.038,32.247c-9.189,17.409 -15.954,36.205 -24.595,53.499c-7.147,14.883 -15.882,28.218 -23.732,41.881c-6.8,11.834 -13.382,23.628 -18.028,36.169c-1.214,3.274 -2.267,6.601 -2.985,10.024c-1.562,7.452 -3.003,14.847 -2.217,22.602c0.831,8.185 3.318,14.312 6.552,22.42Z" fill="#f8bb52"/></g><g id="change2_11"><path d="M781.262,1266.79c-1.284,-1.762 -1.355,-2.985 -1.222,-4.464c0.047,-0.525 0.633,-0.624 0.898,-1.103c0.343,-0.62 1.127,-0.535 1.769,-1.088c1.419,-1.222 3.341,-0.915 5.573,-2.165c2.717,-1.522 5.686,-3.118 9.115,-4.95c3.142,-1.679 6.513,-3.084 9.792,-4.974c3.777,-2.178 7.355,-4.708 10.763,-6.942c8.675,-5.686 15.759,-10.675 17.917,-12.793c5.635,-5.765 10.972,-11.527 15.715,-17.658c7.295,-9.43 13.466,-19.21 19.142,-29.349c13.74,-24.538 23.838,-50.359 35.211,-77.703c-16.12,24.297 -30.871,47.232 -48.569,68.527c-6.915,8.319 -14.348,16.065 -22.288,23.822c-5.012,4.897 -10.17,9.757 -15.773,14.419c-2.657,2.352 -14.591,7.345 -24.773,15.448c-6.237,4.965 -11.449,10.856 -15.468,16.325c-1.112,1.513 -2.292,2.767 -2.966,4.31c-2.597,5.949 -3.623,9.887 -2.343,13.698c0.498,1.485 0.485,2.664 1.516,3.718c1.501,1.535 2.832,2.77 5.991,2.922Z" fill="#f8bb52"/></g><g id="change2_12"><path d="M870.535,1252.92c3.338,-3.971 4.901,-3.315 8.445,-7.091c1.126,-1.201 2.058,-1.997 3.053,-3.345c1.286,-1.741 3.033,-2.774 4.207,-4.691c1.757,-2.873 2.882,-6.202 4.653,-9.325c1.834,-3.233 3.766,-6.465 5.772,-9.79c10.858,-18 23.728,-35.565 31.488,-49.592c-11.196,9.138 -27.757,18.479 -42.853,30.345c-2.525,1.985 -4.871,3.966 -7.139,6.163c-3.591,3.478 -6.656,7.285 -9.393,11.176c-2.547,3.622 -5.134,7.254 -6.248,11.285c-0.557,2.015 -0.752,3.843 -0.711,5.882c0.058,2.942 -0.427,5.353 0.534,8.056c0.381,1.069 0.461,1.518 1.086,2.46c2.867,4.316 3.189,5.049 7.106,8.467Z" fill="#f8bb52"/></g><g id="change2_13"><path d="M1167.45,1216.37c4.065,-4.948 7.369,-7.39 10.956,-12.647c2.162,-3.168 3.54,-6.408 5.23,-9.837c1.633,-3.314 3.351,-6.427 4.619,-9.888c2.476,-6.76 3.935,-13.831 5.957,-20.725c2.044,-6.969 4.151,-13.884 6.129,-20.874c9.421,-33.291 19.117,-65.998 28.337,-99.606c-16.321,31.036 -34.647,60.217 -49.359,91.77c-3.716,7.972 -6.972,16.117 -9.947,24.392c-2.304,6.408 -4.87,12.799 -6.111,19.508c-0.856,4.629 -0.864,9.129 -1.009,13.848c-0.073,2.387 -0.392,4.611 -0.048,6.979c0.977,6.717 3.062,10.607 5.246,17.08Z" fill="#f8bb52"/></g><g id="change2_14"><path d="M1235.51,1224.86c-2.33,-4.832 -0.654,-8.181 -0.034,-14.31c0.236,-2.334 0.712,-4.55 1.082,-7.225c0.493,-3.57 1.856,-7.104 2.537,-11.265c1.483,-9.069 2.645,-19.499 4.987,-30.415c1.471,-6.857 2.902,-13.889 4.553,-20.996c8.957,-38.556 21.658,-77.094 24.49,-88.498c-5.805,11.669 -32.175,52.193 -48.175,92.479c-3.428,8.632 -6.072,17.303 -8.097,25.565c-1.772,7.23 -3.378,14.183 -3.381,20.638c-0.002,3.366 0.447,6.45 1.095,9.447c1.046,4.844 1.767,9.173 3.956,12.763c0.847,1.391 1.421,2.463 2.513,3.549c4.995,4.97 8.217,7.62 14.474,8.268Z" fill="#f8bb52"/></g><g id="change2_15"><path d="M1259.46,1261.85c2.794,-7.486 5.909,-12.923 8.252,-20.332c1.579,-4.991 2.373,-9.893 3.465,-14.921c1.085,-4.995 2.331,-9.807 3.1,-14.788c1.543,-9.992 2.176,-19.969 3.549,-29.797c1.4,-10.026 3.021,-19.931 4.635,-29.861c7.482,-46.045 17.966,-91.191 28.074,-140.926c-17.845,47.978 -37.129,90.781 -49.972,136.045c-3.337,11.763 -6.014,23.696 -8.179,35.836c-1.654,9.28 -3.458,18.664 -3.742,28.259c-0.189,6.392 0.497,12.653 1.15,19.131c0.323,3.208 0.391,6.351 1.175,9.515c1.994,8.044 5.164,13.982 8.493,21.839Z" fill="#f8bb52"/></g><g id="change2_16"><path d="M1254.96,1258.78c0.043,-5.814 2.1,-9.502 5.075,-14.009c1.047,-1.587 2.496,-2.424 3.677,-4.003c4.121,-5.514 9.633,-10.277 15.259,-15.425c2.168,-1.984 4.221,-4.081 6.272,-6.098c5.929,-5.83 11.503,-11.35 15.608,-15.837c6.405,-7.25 12.514,-14.528 17.943,-22.199c8.319,-11.754 15.376,-23.964 21.703,-36.592c15.409,-30.753 25.819,-63.35 34.359,-98.308c-11.55,27 -24.191,52.073 -39.393,75.666c-9.061,14.062 -19.193,27.149 -30.214,40.051c-7.047,8.25 -14.367,16.405 -22.44,24.207c-5.258,5.366 -13.639,11.5 -20.373,19.515c-4.597,5.472 -8.355,11.555 -11.147,17.824c-1.592,3.574 -3.257,6.923 -3.747,10.579c-0.263,1.968 -0.453,3.607 -0.271,5.53c0.711,7.529 2.065,13.319 7.689,19.099Z" fill="#f8bb52"/></g><g id="change2_17"><path d="M1277.19,1270.01c3.641,-6.555 7.617,-10.81 11.518,-17.07c2.544,-4.083 4.609,-8.127 6.98,-12.314c2.326,-4.104 4.881,-7.952 7.052,-12.165c5.462,-10.601 10.297,-21.606 15.471,-32.431c5.445,-11.39 10.43,-22.907 14.708,-34.582c5.578,-16.517 10.787,-32.924 15.675,-49.574c7.31,-24.9 13.855,-49.717 20.411,-74.927c-10.567,23.729 -21.181,47.016 -32.316,70.375c-7.376,15.473 -14.863,30.738 -22.81,46.017c-5.21,10.676 -11.474,20.9 -17.383,31.415c-6.129,10.907 -12.72,21.7 -17.103,33.337c-1.847,4.905 -3.056,9.89 -4.057,15.009c-1.027,5.255 -2.169,10.265 -2.048,15.617c0.176,7.752 1.812,13.693 3.902,21.293Z" fill="#f8bb52"/></g><g id="change2_18"><path d="M1320.27,1250.9c0.063,-2.453 0.611,-4.137 1.473,-6.541c1.308,-3.648 4.005,-5.471 6.313,-9.237c2.648,-4.323 5.441,-8.676 8.486,-13.19c1.549,-2.296 3.151,-4.485 4.527,-6.771c4.305,-7.15 7.744,-13.889 9.833,-18.116c4.26,-9.232 8.638,-18.286 12.491,-27.535c5.909,-14.188 10.929,-28.398 15.734,-42.838c7.952,-23.895 14.456,-47.876 19.113,-73.355c-7.451,19.041 -15.958,36.816 -25.206,54.43c-9.733,18.537 -20.544,36.111 -31.203,54.383c-4.492,7.7 -8.715,15.583 -13.19,23.431c-2.372,4.466 -7.693,11.141 -11.275,19.493c-3.351,7.816 -5.561,16.383 -5.906,24.562c-0.033,0.802 -0.138,1.526 -0.035,2.308c1.127,8.583 3.258,14.218 8.845,18.976Z" fill="#f8bb52"/></g><g id="change2_19"><path d="M1370.47,1234.25c-0.001,-5.404 2.381,-8.756 4.207,-15.321c0.893,-3.21 1.654,-6.385 2.581,-10.082c0.823,-3.276 2.057,-6.49 2.804,-10.136c1.346,-6.569 2.069,-13.767 3.523,-21.186c1.375,-7.015 2.972,-14.246 4.519,-21.645c8.488,-40.593 19.996,-83.604 23.005,-103.732c-7.209,19.21 -29.713,58.329 -44.535,97.424c-3.335,8.797 -5.997,17.626 -8.15,26.125c-1.815,7.168 -3.595,14.098 -3.911,20.7c-0.157,3.282 0.145,6.343 0.542,9.376c0.608,4.642 1.162,8.748 2.484,12.652c0.226,0.669 0.355,1.273 0.681,1.881c3.765,7.027 6.971,10.497 12.25,13.944Z" fill="#f8bb52"/></g><g id="change2_20"><path d="M1527.79,1207.13c3.273,-7.318 7.063,-12.128 10.27,-19.369c2.73,-6.164 4.555,-12.353 6.938,-18.655c0.491,-1.297 0.998,-2.566 1.398,-3.895c0.924,-3.073 1.61,-6.215 2.427,-9.326c2.755,-10.501 5.968,-20.909 9.139,-31.385c4.654,-15.376 9.202,-30.714 13.421,-46.159c8.31,-30.427 14.418,-60.609 11.62,-91.671c-3.712,42.363 -24.966,79.766 -42.717,119.164c-3.833,8.508 -7.293,17.148 -10.468,25.877c-3.252,8.944 -6.666,17.882 -8.35,27.181c-0.87,4.804 -1.116,9.573 -1.19,14.448c-0.076,4.966 -0.369,9.714 0.589,14.597c1.43,7.283 3.951,12.298 6.923,19.193Z" fill="#f8bb52"/></g><g id="change2_21"><path d="M1629.11,1213.45c2.375,-5.07 3.633,-5.576 4.979,-10.777c0.646,-2.499 0.485,-4.475 0.516,-6.982c0.028,-2.341 0.153,-4.411 -0.314,-6.641c-0.88,-4.201 -2.906,-7.95 -4.403,-11.77c-1.533,-3.914 -3.046,-7.69 -4.649,-11.448c-7.411,-17.379 -13.92,-33.37 -15.337,-56.378c-5.575,17.196 -7.44,31.501 -7.326,46.278c0.054,6.916 0.538,13.526 1.75,20.404c1.192,6.765 2.412,13.765 5.346,20.467c0.719,1.642 1.688,3.045 2.781,4.514c1.953,2.624 3.444,4.841 6.128,6.925c4.232,3.285 5.578,2.831 10.529,5.408Z" fill="#f8bb52"/></g><g id="change2_22"><path d="M1619.97,1258.45c2.61,-6.316 5.379,-9.907 7.424,-16.286c1.743,-5.434 2.418,-10.724 3.387,-16.27c0.404,-2.31 0.766,-4.588 0.945,-6.917c0.581,-7.552 0.525,-15.095 0.89,-22.629c0.372,-7.649 0.802,-15.262 1.123,-22.953c0.646,-15.477 0.919,-30.872 1.198,-46.833c0.193,-18.762 -0.25,-32.39 -1.089,-41.986c-1.059,-12.123 -2.635,-17.382 -4.068,-17.227c1.388,0.151 1.715,5.455 0.212,17.148c-1.207,9.396 -3.611,22.586 -7.708,40.577c-4.043,18.801 -8.979,36.665 -12.18,54.993c-2.197,12.578 -4.153,25.218 -4.118,38.012c0.007,2.507 0.227,4.977 0.588,7.466c0.863,5.937 1.48,11.672 3.79,17.296c2.606,6.345 5.727,9.784 9.606,15.609Z" fill="#f8bb52"/></g><g id="change2_23"><path d="M1672.61,1250c0.151,-6.614 1.653,-10.922 1.564,-17.811c-0.071,-5.493 -0.884,-10.691 -1.57,-16.348c-0.276,-2.274 -0.575,-4.534 -1.058,-6.805c-2.432,-11.447 -5.223,-23.164 -7.292,-35.213c-3.138,-18.276 -5.877,-36.702 -6.92,-54.88c-1.182,-20.589 -1.051,-40.081 0.513,-57.434c-7.275,23.185 -13.239,51.054 -15.723,80.307c-1.009,11.877 -1.527,23.783 -0.946,35.653c0.64,13.077 1.872,26.109 5.45,38.121c0.948,3.182 2.204,6.17 3.654,9.095c2.553,5.153 4.8,10.033 8.485,14.198c4.533,5.125 8.465,7.323 13.843,11.117Z" fill="#f8bb52"/></g><g id="change2_24"><path d="M1686.84,1272.18c2.754,-6.654 5.743,-10.813 8.058,-17.558c0.215,-0.624 0.281,-1.248 0.414,-1.894c1.196,-5.774 2.689,-11.145 3.951,-16.877c0.329,-1.496 0.67,-2.959 0.88,-4.476c0.311,-2.246 0.425,-4.513 0.597,-6.772c1.127,-14.832 2.828,-29.562 4.492,-44.39c2.551,-22.715 4.76,-45.28 6.936,-68.194c0.251,-2.854 0.921,-20.563 3.697,-32.936c1.462,-6.517 3.431,-11.443 6.295,-11.728c-3.029,-0.301 -6.114,4.384 -8.986,10.837c-5.238,11.773 -9.462,29.279 -10.284,32.072c-6.371,22.217 -13.868,43.764 -19.414,66.037c-3.767,15.131 -6.605,30.424 -8.364,45.868c-0.275,2.408 -0.569,4.822 -0.606,7.247c-0.025,1.64 0.078,3.247 0.226,4.881c0.563,6.227 1.493,12.099 2.657,18.271c0.129,0.686 0.169,1.352 0.392,2.014c2.339,6.921 5.436,11.171 9.059,17.598Z" fill="#f8bb52"/></g><g id="change2_25"><path d="M1724.36,1259.68c0.505,-6.8 2.133,-11.23 2.631,-17.825c0.309,-4.08 0.15,-7.849 0.188,-11.886c0.037,-3.913 0.459,-7.668 0.347,-11.554c-0.332,-11.519 -1.054,-22.965 -0.217,-34.569c0.567,-7.864 1.246,-15.715 2.351,-23.643c4.726,-33.922 14.722,-67.727 24.073,-99.869c-13.211,25.407 -27.556,51.654 -38.137,79.244c-4.689,12.228 -8.659,24.518 -11.156,37.095c-2.781,14.013 -4.435,28.289 -2.699,42.293c0.446,3.596 1.255,7.087 2.363,10.551c1.862,5.825 3.541,11.498 7.048,16.631c3.916,5.731 7.85,8.788 13.208,13.532Z" fill="#f8bb52"/></g><g id="change2_26"><path d="M1734.55,1255.53c1.32,-6.587 3.674,-10.196 5.011,-16.728c1.011,-4.941 1.372,-9.613 2.113,-14.643c0.149,-1.01 0.343,-1.987 0.403,-3.009c0.138,-2.333 0.048,-4.682 0.096,-7.036c0.16,-7.905 0.834,-15.875 1.721,-23.948c1.292,-11.762 2.837,-23.531 5.052,-35.347c4.526,-24.142 10.236,-47.452 14.141,-68.753c-12.173,27.814 -30.101,58.416 -40.087,91.06c-2.552,8.342 -4.296,16.814 -5.416,25.264c-0.904,6.813 -1.819,13.678 -1.039,20.371c0.552,4.737 1.907,9.049 3.489,13.504c0.804,2.263 1.266,4.475 2.54,6.507c3.584,5.713 6.905,8.235 11.976,12.758Z" fill="#f8bb52"/></g><g id="change2_27"><path d="M1549.27,1223.31c4.851,-4.701 8.289,-7.222 11.999,-12.877c1.298,-1.979 1.888,-4.126 2.787,-6.322c1.766,-4.309 3.488,-8.411 4.474,-12.99c1.405,-6.523 1.383,-13.317 1.56,-20.055c0.224,-8.524 0.083,-17.091 -0.558,-25.683c-2.531,-33.919 -9.343,-67.292 -8.743,-100.247c-7.898,32.131 -10.595,66.079 -13.692,100.081c-0.639,7.024 -1.128,14.004 -1.727,20.97c-0.594,6.902 -1.805,13.711 -2.06,20.556c-0.131,3.528 0.292,6.886 0.491,10.392c0.208,3.663 0.233,7.002 0.89,10.598c1.121,6.143 3.113,9.513 4.579,15.577Z" fill="#f8bb52"/></g><g id="change2_28"><path d="M1601.15,1240.43c2.815,-4.963 4.687,-7.691 6.782,-13.46c0.421,-1.16 0.606,-2.146 0.814,-3.381c0.956,-5.667 1.458,-11.241 1.115,-17.33c-0.133,-2.366 -0.741,-4.705 -1.206,-7.069c-1.389,-7.066 -3.032,-14.225 -4.683,-21.425c-1.076,-4.688 -2.213,-9.324 -3.317,-13.99c-4.289,-18.119 -7.899,-35.677 -5.956,-52.372c1.25,-10.736 4.334,-20.713 10.527,-30.014c-21.464,19.363 -26.236,48.288 -26.023,79.101c0.047,6.753 0.386,13.498 1.08,20.273c1.02,9.967 1.816,19.987 4.174,29.308c0.828,3.272 2.176,6.158 3.398,9.193c1.31,3.254 2.329,6.171 4.044,9.064c3.167,5.341 5.991,7.355 9.251,12.102Z" fill="#f8bb52"/></g><g id="change2_29"><path d="M1308.23,1216.52c2.137,-5.747 4.384,-8.603 6.105,-14.412c0.996,-3.362 1.337,-6.499 1.887,-9.942c0.525,-3.294 1.269,-6.394 1.477,-9.711c0.403,-6.443 -0.112,-12.888 0.079,-19.329c0.193,-6.531 0.553,-13.022 0.92,-19.564c1.771,-31.55 6.45,-62.71 12.892,-93.75c-10.376,21.932 -20.436,43.818 -28.162,66.868c-3.391,10.117 -6.361,20.203 -8.348,30.617c-2.148,11.262 -3.863,22.724 -3.136,34.164c0.186,2.924 0.7,5.749 1.415,8.599c1.228,4.896 2.178,9.515 4.675,13.945c3.068,5.443 5.987,7.796 10.196,12.515Z" fill="#f8bb52"/></g><g id="change2_30"><path d="M1301.91,1195.71c2.646,-4.832 4.47,-5.92 6.534,-11.055c1.024,-2.546 1.366,-4.801 1.903,-7.501c0.495,-2.487 1.166,-4.743 1.266,-7.283c0.186,-4.747 -0.673,-9.479 -0.936,-14.24c-0.266,-4.796 -0.479,-9.554 -0.738,-14.36c-1.268,-23.549 -1.044,-46.505 4.106,-69.244c-9.445,15.673 -16.762,32.034 -22.041,49.781c-2.289,7.692 -4.146,15.322 -5.22,23.269c-1.142,8.452 -2.048,17.061 -0.92,25.471c0.293,2.181 0.882,4.206 1.641,6.267c1.356,3.684 2.327,6.938 4.68,10.062c3.406,4.522 5.431,5.182 9.725,8.833Z" fill="#f8bb52"/></g><g id="change2_31"><path d="M679.397,1256.93c1.949,-5.985 4.185,-9.368 5.714,-15.556c0.902,-3.646 1.099,-7.1 1.514,-10.868c0.395,-3.598 0.97,-7.053 1,-10.705c0.059,-7.046 -0.901,-14.119 -1.269,-21.263c-0.367,-7.152 -0.649,-14.321 -1.081,-21.538c-2.09,-34.895 -3.771,-69.758 -7.369,-102.633c-3.611,32.986 -11.49,67.248 -15.06,102.143c-0.894,8.734 -1.29,17.454 -1.362,26.13c-0.057,6.839 -0.344,13.707 0.743,20.362c0.764,4.676 2.285,8.911 3.774,13.353c0.763,2.275 1.23,4.475 2.384,6.562c3.316,5.994 6.632,8.865 11.012,14.013Z" fill="#f8bb52"/></g><g id="change2_32"><path d="M729.887,1264.77c-0.544,-5.167 1.397,-7.598 1.697,-13.797c0.181,-3.747 0.271,-7.343 0.189,-11.67c-0.031,-1.624 -0.028,-3.255 -0.243,-4.942c-1.042,-8.162 -2.455,-17.073 -3.326,-26.446c-1.295,-13.932 -2.655,-28.247 -2.729,-41.949c-0.094,-17.577 0.784,-33.101 2.714,-43.656c-8.307,16.852 -19.308,49.062 -22.826,80.611c-0.821,7.363 -0.905,14.629 -0.623,21.57c0.237,5.817 0.434,11.512 1.926,16.579c0.744,2.528 1.803,4.703 2.993,6.882c1.801,3.295 3.095,6.305 5.457,8.745c0.904,0.934 1.472,1.523 2.517,2.218c4.996,3.32 7.264,4.613 12.254,5.855Z" fill="#f8bb52"/></g><g id="change2_33"><path d="M740.373,1272.79c0.565,-6.085 1.948,-9.187 2.049,-15.039c0.059,-3.409 -0.439,-6.369 -0.825,-9.662c-0.375,-3.193 -0.469,-6.219 -1.138,-9.289c-1.323,-6.074 -3.479,-11.792 -4.911,-17.646c-1.486,-6.077 -2.763,-12.097 -4.014,-18.157c-5.956,-28.839 -8.723,-57.642 -12.7,-90.04c-4.07,33.151 -10.267,62.426 -9.594,92.551c0.178,7.998 1.105,15.952 2.562,23.94c1.107,6.071 2.119,12.338 4.637,18.178c1.694,3.93 4.015,7.295 6.519,10.92c1.236,1.79 2.153,3.606 3.752,5.135c4.567,4.367 8.004,5.693 13.663,9.109Z" fill="#f8bb52"/></g><g id="change2_34"><path d="M351.274,1229.78c0.493,-5.95 2.056,-8.948 2.44,-14.79c0.214,-3.259 0.024,-6.147 -0.087,-9.397c-0.106,-3.082 0.148,-6.015 -0.183,-9.087c-0.644,-5.956 -2.046,-11.829 -2.726,-17.869c-0.693,-6.155 -1.183,-12.348 -1.703,-18.623c-2.563,-30.894 -2.783,-62.418 -9.06,-91.487c-0.935,29.832 -10.321,60.332 -13.374,91.293c-0.796,8.068 -0.898,16.1 -0.469,24.04c0.346,6.39 0.631,12.857 2.515,18.892c1.332,4.267 3.343,7.972 5.607,11.822c1.145,1.947 1.935,3.903 3.49,5.552c4.452,4.721 7.852,6.282 13.55,9.654Z" fill="#f8bb52"/></g><g id="change2_35"><path d="M304.953,1245.99c0.26,-5.752 1.718,-8.389 1.915,-14.028c0.107,-3.049 -0.125,-5.687 -0.337,-8.721c-0.201,-2.872 -0.031,-5.597 -0.487,-8.449c-0.862,-5.406 -2.545,-10.672 -3.635,-16.102c-1.132,-5.641 -2.155,-11.302 -3.367,-16.964c-2.577,-12.036 -5.62,-23.703 -9.567,-35.134c-2.273,-6.358 -9.418,-21.163 -11.947,-33.963c-1.161,-5.877 -1.374,-11.113 0.45,-14.869c-2.943,3.328 -4.197,8.767 -4.674,15.123c-0.994,13.262 2.01,29.748 2.531,36.611c1.006,11.554 0.371,23.113 0.678,34.914c0.158,6.085 0.624,12.124 1.305,18.134c0.713,6.3 1.215,12.7 3.313,18.605c1.158,3.262 2.75,6.128 4.624,9.025c1.954,3.021 3.433,5.917 6.155,8.287c4.527,3.941 7.484,4.96 13.043,7.531Z" fill="#f8bb52"/></g><g id="change2_36"><path d="M259.095,1276.19c-0.518,-5.159 0.726,-9.585 0.302,-17.327c-0.204,-3.707 -0.954,-7.365 -1.657,-11.604c-0.611,-3.681 -1.022,-7.473 -2.058,-11.443c-1.835,-7.032 -4.77,-14.284 -7.261,-21.995c-2.333,-7.223 -4.66,-14.694 -7.139,-22.235c-13.967,-42.482 -26.892,-87.527 -24.112,-106.689c-5.383,14.817 -5.209,48.123 -1.341,84.088c1.289,11.983 2.847,24.109 5.176,35.899c2.648,13.403 5.493,26.425 9.763,37.582c1.224,3.2 2.716,6.107 4.291,8.89c3.075,5.433 5.705,10.249 9.28,14.031c5.62,5.946 9.992,8.111 14.756,10.803Z" fill="#f8bb52"/></g><g id="change2_37"><path d="M260.021,1282.04c0.861,-6.66 2.352,-10.806 2.453,-17.404c0.062,-4.059 -0.685,-7.751 -1.236,-11.728c-0.536,-3.869 -0.939,-7.62 -1.864,-11.381c-1.762,-7.165 -4.474,-14.001 -6.581,-21.008c-2.109,-7.014 -4.099,-14.017 -6.056,-21.107c-3.869,-14.017 -7.601,-28.023 -9.889,-43.136c-1.213,-7.632 -5.402,-27.378 -3.471,-41.66c0.951,-7.03 3.309,-12.573 8.35,-14.52c-5.827,0.88 -9.58,6.292 -12.244,13.555c-5.184,14.138 -5.389,35.225 -5.856,43.286c-0.812,16.133 -0.613,31.491 1.164,46.755c0.907,7.792 2.345,15.444 4.032,23.071c1.673,7.566 3.274,15.207 6.012,22.525c0.847,2.265 1.893,4.4 3.039,6.542c2.716,5.076 5.078,10.029 8.853,14.488c4.3,5.078 8.164,7.301 13.294,11.722Z" fill="#f8bb52"/></g><g id="change2_38"><path d="M311.733,1266.94c0.346,-5.159 1.018,-8.258 0.601,-14.644c-0.076,-1.169 -0.262,-2.1 -0.552,-3.28c-1.256,-5.119 -2.698,-10.246 -5.211,-15.695c-0.938,-2.034 -2.293,-3.9 -3.532,-5.861c-3.637,-5.757 -7.545,-11.687 -11.515,-17.73c-2.559,-3.895 -5.172,-7.752 -7.799,-11.648c-10.415,-15.451 -20.326,-30.668 -25.7,-45.304c-4.121,-11.222 -5.827,-21.453 -3.435,-30.464c-10.658,18.796 -3.856,49.57 7.978,80.399c2.357,6.141 4.914,12.176 7.788,18.063c4.416,9.045 8.638,18.07 14.026,25.49c2.01,2.767 4.33,4.932 6.597,7.193c2.545,2.54 4.616,4.829 7.306,6.68c5.435,3.738 8.787,4.286 13.448,6.801Z" fill="#f8bb52"/></g><g id="change2_39"><path d="M333.504,1251.99c1.302,-5.196 2.67,-5.732 3.417,-11.077c0.327,-2.338 0.22,-4.138 0.095,-6.511c-0.111,-2.114 0.08,-4.023 -0.406,-6.098c-0.884,-3.777 -2.73,-7.279 -4.032,-10.982c-1.322,-3.758 -2.606,-7.494 -3.958,-11.278c-6.815,-19.064 -12.529,-37.852 -15.561,-56.83c-4.291,19.66 -7.807,40.207 -6.412,61.359c0.351,5.332 1.317,10.541 2.549,15.685c0.969,4.043 1.752,8.234 3.781,11.811c1.508,2.659 3.387,4.516 5.506,6.686c1.107,1.133 1.79,2.248 3.139,3.066c5.001,3.036 6.305,2.557 11.882,4.169Z" fill="#f8bb52"/></g></g><g id="change3_1"><path d="M759.231,1227.58c-3.252,-9.748 -4.114,-18.521 -6.404,-28.28c-2.422,-10.32 -4.774,-20.344 -6.889,-30.766c-2.075,-10.221 -4.448,-20.456 -5.914,-30.964c-1.89,-13.548 -3,-27.339 -3.796,-41.22c-1.939,-33.801 -1.79,-67.869 -3.018,-99.359c-0.565,-12.715 2.328,-41.246 -1.916,-62.365c-2.112,-10.505 -5.884,-19.157 -12.736,-23.192c6.037,4.688 8.622,13.377 9.352,23.651c1.516,21.345 -4.974,49.09 -6.016,61.691c-2.444,31.699 -7.7,65.772 -8.552,99.917c-0.581,23.266 0.502,46.56 5.56,68.59c1.016,4.426 2.234,8.791 3.807,13.023c3.734,10.045 7.877,19.847 14.32,28.384c6.349,8.412 13.631,14.312 22.202,20.89Z" fill="#aa7820"/></g><g id="change3_2"><path d="M1044.52,856.774c-0.836,2.917 -2.372,10.277 -4.399,19.929l-13.331,65.847c-6.4,30.011 -21.044,71.678 -31.129,115.328c-6.271,27.142 -10.676,54.987 -11.336,80.819c-0.092,3.624 -0.146,7.216 0.062,10.751c0.216,3.665 0.63,7.249 1.195,10.779c1.825,11.415 4.492,22.038 8.589,31.749c0.487,1.154 0.916,2.288 1.518,3.371c5.777,10.376 12.778,18.012 21.591,24.852c-3.952,-9.869 -4.542,-19.605 -5.706,-30.902c-0.429,-4.165 -1.081,-8.303 -1.437,-12.656c-0.674,-8.233 -0.201,-16.728 -0.108,-25.656c0.131,-12.522 0.226,-25.672 1.403,-39.149c1.425,-16.316 3.772,-33.053 6.336,-49.681c6.835,-44.303 15.833,-87.461 19.119,-117.989l5.998,-67.041c0.953,-9.884 1.348,-17.427 1.635,-20.351c0.128,-0.461 0.242,-0.81 0.337,-1.041c-0.116,-0.614 -0.217,-0.207 -0.337,1.041Zm0.337,-1.041l0.08,0.551c0.064,0.55 0.127,1.375 0.19,2.509c0.064,-1.139 0.094,-1.97 0.091,-2.526c-0.005,-0.956 -0.129,-1.094 -0.361,-0.534Z" fill="#aa7820"/></g><g id="change3_3"><path d="M1024.94,1218.93c-0.02,-10.802 1.765,-20.306 2.484,-31.168c0.652,-9.863 0.813,-19.624 1.543,-29.646c0.428,-5.872 0.888,-11.75 1.289,-17.684c0.93,-13.755 1.922,-27.661 3.756,-41.541c1.581,-11.966 3.56,-23.899 5.583,-35.773c4.973,-29.192 10.66,-57.76 15.751,-84.309c2.18,-11.548 4.978,-22.903 8.077,-34.244c4.702,-17.209 10.001,-34.195 14.798,-51.371c0.388,-1.386 2.417,-13.84 5.514,-21.01c1.735,-4.019 3.79,-6.317 6.094,-3.726c-2.166,-3.082 -4.677,-0.876 -7.049,3.248c-3.911,6.803 -7.376,18.999 -7.921,20.339c-6.735,16.553 -13.98,32.848 -20.591,49.458c-4.467,11.222 -8.577,22.512 -12.106,34.058c-7.889,26.088 -17.307,53.947 -24.629,82.891c-3.575,14.136 -6.543,28.507 -8.85,42.918c-2.356,14.717 -4.484,29.483 -4.426,44.129c0.03,7.766 0.811,15.401 1.923,22.99c1.133,7.737 2.197,15.336 4.7,22.648c3.512,10.259 8.458,18.601 14.06,27.793Z" fill="#aa7820"/></g><g id="change3_4"><path d="M1126.87,1229.6c-4.456,-8.097 -4.88,-16.431 -3.561,-25.748c0.283,-2.003 0.943,-3.777 1.278,-5.823c1.25,-7.662 2.986,-15.482 5.34,-23.159c1.879,-6.129 4.126,-11.98 5.992,-17.555c1.46,-4.363 2.624,-8.544 3.756,-12.28c6.593,-24.568 13.898,-49.046 20.602,-73.758c10.07,-37.117 19.36,-74.45 28.156,-111.929c9.821,-41.843 18.364,-83.723 24.621,-125.926c-7.838,30.947 -17.043,61.514 -26.929,92.072c-13.771,42.568 -29.429,84.517 -43.913,126.895c-9.713,28.417 -18.571,57.039 -27.326,85.539c-0.912,3.266 -2.059,6.806 -3.004,10.623c-0.879,3.554 -1.635,7.299 -2.295,11.184c-1.95,11.488 -3.485,23.81 -2.27,35.455c0.145,1.384 0.264,2.722 0.566,4.063c2.906,12.881 8.367,23.395 18.987,30.347Z" fill="#aa7820"/></g></svg>