<?xml version="1.0" encoding="UTF-8" standalone="no"?><svg xmlns="http://www.w3.org/2000/svg" xmlns:xlink="http://www.w3.org/1999/xlink" fill="#ff65c4" height="65.6" preserveAspectRatio="xMidYMid meet" version="1" viewBox="-2.6 217.2 505.5 65.6" width="505.5" zoomAndPan="magnify"><g id="change1_1"><path d="M 492.046875 219.097656 C 483.441406 217.160156 474.355469 218.480469 465.609375 218.992188 C 457.308594 219.476562 449.039062 220.214844 440.757812 220.960938 C 424.976562 222.386719 409.179688 223.648438 393.40625 225.15625 C 361.535156 228.203125 329.664062 231.222656 297.785156 234.210938 C 237.964844 239.824219 178.085938 245.34375 118.359375 251.90625 C 100.152344 253.90625 81.921875 255.65625 63.695312 257.457031 C 44.160156 259.386719 24.402344 260.851562 5.320312 265.550781 C -2.628906 267.511719 -1.292969 281.066406 6.816406 281.578125 C 25.667969 282.769531 44.628906 280.636719 63.414062 279.011719 C 78.964844 277.671875 94.515625 276.371094 110.070312 275.089844 C 140.863281 272.554688 171.644531 269.894531 202.433594 267.3125 C 262.703125 262.257812 322.921875 256.613281 383.164062 251.234375 C 401.957031 249.554688 420.722656 247.660156 439.507812 245.882812 C 447.6875 245.109375 455.898438 244.46875 464.046875 243.402344 C 473.941406 242.109375 484.496094 241.902344 493.769531 237.972656 C 502.902344 234.101562 501.710938 221.273438 492.046875 219.097656"/></g></svg>